# xmcd CD database file
#
# Track frame offsets:
#	150
#	22880
#	47619
#	64683
#	93426
#	111825
#	129720
#	152394
#	173521
#	195403
#	213773
#
# Disc length: 3116 seconds
#
# Revision: 0
# Processed by: cddbd v1.4PL0 Copyright (c) Steve Scherf et al.
# Submitted via: Feurio! 1.65 - http://www.feurio.com
#
DISCID=800c2a0b
DTITLE=Tommy Castro - Guilty Of Love
DYEAR=2001
DGENRE=blues
TTITLE0=Guilty Of Love
TTITLE1=Whole Lotta Soul
TTITLE2=Shakin The Hard Times Loose
TTITLE3=Aint No Fun To Me
TTITLE4=Somebody To Love You
TTITLE5=Naugahyde
TTITLE6=Dirt Road Blues
TTITLE7=Stay With Me Tonight
TTITLE8=I Aint Gonna Make That Call
TTITLE9=Blinded In The Face Of Love
TTITLE10=If You Aint Lovin You Aint Livin
EXTD=Dixiefrog Records, 2001
EXTT0=
EXTT1=
EXTT2=
EXTT3=
EXTT4=
EXTT5=
EXTT6=
EXTT7=
EXTT8=
EXTT9=
EXTT10=
PLAYORDER=
